<?xml version="1.0" encoding="utf-8"?>
<!-- Generator: Adobe Illustrator 18.1.1, SVG Export Plug-In . SVG Version: 6.00 Build 0)  -->
<svg version="1.1" id="Layer_1" xmlns="http://www.w3.org/2000/svg" xmlns:xlink="http://www.w3.org/1999/xlink" x="0px" y="0px"
	 viewBox="0 0 225 70" enable-background="new 0 0 225 70" xml:space="preserve">
<g>
	<path fill="#6D6E71" d="M38.5,65.1v-1.4h1.7V52.6h-1.7v-1.4h5.4c4.3,0,7,2.6,7,6.9c0,4.3-2.6,7-6.7,7H38.5z M43.8,63.7
		c3.5,0,5.4-1.9,5.4-5.5c0-3.4-1.8-5.6-5.4-5.6h-1.9v11.1H43.8z M59.5,65.1v-1.7h0c-0.3,0.5-1.4,1.9-3.8,1.9c-1.8,0-3.2-1-3.2-2.7
		c0-2.2,2.1-3.1,5.2-3.1h1.6v-0.3c0-1.8-1-2.5-2.5-2.5c-2.1,0-3.1,1.1-3.1,1.1l-0.8-1c0,0,0.9-1.4,3.9-1.4c2.5,0,4.1,1,4.1,3.9v4.5
		h1.3v1.3H59.5z M59.3,60.8h-1.5c-2,0-3.6,0.4-3.6,1.7c0,0.8,0.7,1.4,2,1.4c1.6,0,2.7-1.3,3.2-1.9V60.8z M69.6,64.3
		c-0.2,0.2-0.8,0.9-2.1,0.9c-1.9,0-3.1-1.1-3.1-3.3v-5.1h-1.4v-1.3h1.4v-2.2h1.6v2.2h2.7v1.3h-2.7v5c0,1.3,0.6,2,1.6,2
		c0.7,0,1.1-0.5,1.2-0.6L69.6,64.3z M77.2,65.1v-1.7h0c-0.3,0.5-1.4,1.9-3.8,1.9c-1.8,0-3.2-1-3.2-2.7c0-2.2,2.1-3.1,5.2-3.1H77
		v-0.3c0-1.8-1-2.5-2.5-2.5c-2.1,0-3.1,1.1-3.1,1.1l-0.8-1c0,0,0.9-1.4,3.9-1.4c2.5,0,4.1,1,4.1,3.9v4.5h1.3v1.3H77.2z M77,60.8
		h-1.5c-2,0-3.6,0.4-3.6,1.7c0,0.8,0.7,1.4,2,1.4c1.6,0,2.7-1.3,3.2-1.9V60.8z M86,65.1v-1.4h1.7V52.6H86v-1.4h5.1v1.4h-1.7v11.1
		h1.7v1.4H86z M100.3,65.1v-5.9c0-1.5-0.7-2.4-2.1-2.4c-2,0-2.6,1.7-2.6,1.7v5.3h1.2v1.3h-4.1v-1.3H94v-6.9h-1.3v-1.3h2.7l0,1.5h0.1
		c0.2-0.4,1-1.7,3.1-1.7c2.1,0,3.3,1.3,3.3,3.4v5h1.3v1.3H100.3z M110.7,64.3c-0.2,0.2-0.8,0.9-2.1,0.9c-1.9,0-3.1-1.1-3.1-3.3v-5.1
		h-1.4v-1.3h1.4v-2.2h1.6v2.2h2.7v1.3H107v5c0,1.3,0.6,2,1.6,2c0.7,0,1.1-0.5,1.2-0.6L110.7,64.3z M113,60.7
		c0.1,2.2,1.7,3.2,3.2,3.2c2,0,3-1.3,3.3-1.7l0.9,0.9c-0.3,0.4-1.5,2.2-4.3,2.2c-2.6,0-4.7-1.8-4.7-4.9c0-3.1,2.2-4.9,4.5-4.9
		c2.8,0,4.3,1.9,4.3,5v0.3H113z M118.7,59.4c-0.1-1.5-1-2.6-2.7-2.6c-1.4,0-2.7,0.9-2.9,2.6H118.7z M121.7,65.1v-1.3h1.3V52.5h-1.3
		v-1.3h2.9v12.6h1.3v1.3H121.7z M127.2,65.1v-1.3h1.3V52.5h-1.3v-1.3h2.9v12.6h1.3v1.3H127.2z M132.8,65.1v-1.3h1.3v-6.9h-1.3v-1.3
		h2.9v8.2h1.3v1.3H132.8z M134.9,53.8c-0.6,0-1.1-0.5-1.1-1.1c0-0.6,0.5-1.2,1.1-1.2c0.6,0,1.1,0.5,1.1,1.2
		C136,53.3,135.5,53.8,134.9,53.8z M138.9,68.2l0.8-1.1c0.2,0.1,1,1.2,3.1,1.2c1.7,0,3.1-0.8,3.1-2.8v-2.2c-0.4,0.9-1.5,2-3.2,2
		c-2.6,0-4.3-2.1-4.3-4.9c0-3,1.8-4.9,4.4-4.9c1.7,0,2.8,1,3.2,1.9h0l0-1.8h2.7v1.3h-1.3v8.6c0,2.9-2,4.2-4.6,4.2
		C140.1,69.6,139.1,68.3,138.9,68.2z M145.9,60.4c0-2.3-1.3-3.5-3-3.5c-1.7,0-3,1.4-3,3.6c0,2.1,1.3,3.5,3,3.5
		C144.6,63.9,145.9,62.6,145.9,60.4z M151.7,60.7c0.1,2.2,1.7,3.2,3.2,3.2c2,0,3-1.3,3.3-1.7l0.9,0.9c-0.3,0.4-1.5,2.2-4.3,2.2
		c-2.6,0-4.7-1.8-4.7-4.9c0-3.1,2.2-4.9,4.5-4.9c2.8,0,4.3,1.9,4.3,5v0.3H151.7z M157.4,59.4c-0.1-1.5-1-2.6-2.7-2.6
		c-1.4,0-2.7,0.9-2.9,2.6H157.4z M168.2,65.1v-5.9c0-1.5-0.7-2.4-2.1-2.4c-2,0-2.6,1.7-2.6,1.7v5.3h1.2v1.3h-4.1v-1.3h1.3v-6.9h-1.3
		v-1.3h2.7l0,1.5h0.1c0.2-0.4,1-1.7,3.1-1.7c2.1,0,3.3,1.3,3.3,3.4v5h1.3v1.3H168.2z M181.4,63.1c-0.3,0.4-1.5,2.2-4.3,2.2
		c-2.6,0-4.7-1.8-4.7-4.9c0-3.1,2.2-4.9,4.6-4.9c1.8,0,2.7,0.9,3.1,1.4h0v-1.3h1.2v3.8H180v-0.6c0-0.8-1-2-2.7-2
		c-1.5,0-3.2,1.2-3.2,3.5c0,2.3,1.6,3.6,3.2,3.6c1.9,0,3-1.3,3.3-1.7L181.4,63.1z M184.8,60.7c0.1,2.2,1.7,3.2,3.2,3.2
		c2,0,3-1.3,3.3-1.7l0.9,0.9c-0.3,0.4-1.5,2.2-4.3,2.2c-2.6,0-4.7-1.8-4.7-4.9c0-3.1,2.2-4.9,4.5-4.9c2.8,0,4.3,1.9,4.3,5v0.3H184.8
		z M190.4,59.4c-0.1-1.5-1-2.6-2.7-2.6c-1.4,0-2.7,0.9-2.9,2.6H190.4z"/>
	<path fill="#6D6E71" d="M0,0.7h16.7v4.1h-6v16.8H6.1V4.8H0V0.7z M20.1,21.6H35v-4.1H24.8V13h10V8.9h-10V4.8H35V0.7H20.1V21.6z
		 M51.4,13.7l4.7,7.9h-5.4l-4.1-7.4h-3v7.4H39V0.7h9.8c4.2,0,7.1,2.7,7.1,6.8C55.9,11.2,53.5,13.1,51.4,13.7z M51.1,7.4
		c0-1.6-1.2-2.6-3-2.6h-4.5v5.4h4.5C49.9,10.1,51.1,9,51.1,7.4z M77.2,15.9c0,3.5-2.4,5.7-6.1,5.7H59.7V0.7h11
		c4.2,0,6.1,2.7,6.1,5.4c0,2.6-1.5,4.2-3.2,4.7C75.7,11.4,77.2,13.5,77.2,15.9z M64.4,8.9h5.4c1.4,0,2.3-0.8,2.3-2.1
		c0-1.2-0.9-2.1-2.3-2.1h-5.4V8.9z M72.5,15.2c0-1.3-1-2.2-2.5-2.2h-5.6v4.5H70C71.6,17.5,72.5,16.7,72.5,15.2z M81.1,21.6h4.6V0.7
		h-4.6V21.6z M104.5,13.1c0,3-1.8,4.8-4.7,4.8c-3,0-4.8-1.8-4.8-4.8V0.7h-4.7v12.5c0,5.6,3.4,8.8,9.5,8.8c6,0,9.5-3.2,9.5-8.8V0.7
		h-4.7V13.1z M125.2,13.4l-4.9-12.7l0-0.1h-6.4v20.9h4.6V7.2l5.6,14.4l0,0.1h2.1l5.6-14.4v14.4h4.7V0.7h-6.4L125.2,13.4z M154.5,0.7
		h-4.7v20.9h11.4l1.6-4.1h-8.3V0.7z M177.3,0.7l8,20.9h-5.2l-1.3-3.5h-8.7l-1.3,3.5h-5.3l0.1-0.2l8-20.8L177.3,0.7L177.3,0.7z
		 M177.5,14l-3.1-8.5l-3.1,8.5H177.5z M205.2,15.9c0,3.5-2.4,5.7-6.1,5.7h-11.4V0.7h11c4.2,0,6.1,2.7,6.1,5.4c0,2.6-1.5,4.2-3.2,4.7
		C203.7,11.4,205.2,13.5,205.2,15.9z M192.4,8.9h5.4c1.4,0,2.3-0.8,2.3-2.1c0-1.2-0.9-2.1-2.3-2.1h-5.4V8.9z M200.5,15.2
		c0-1.3-1-2.2-2.5-2.2h-5.6v4.5h5.6C199.6,17.5,200.5,16.7,200.5,15.2z M217.1,8.6c-2.1-0.5-4-0.9-4-2.1c0-1.2,1.1-1.9,2.8-1.9
		c2.2,0,4.4,0.8,5.9,2.2l0.1,0.1l2.6-3.5l-0.1-0.1c-2.1-1.9-4.8-2.9-8.1-2.9c-4.6,0-8,2.7-8,6.4c0,4.7,4.3,5.7,7.7,6.5
		c2.2,0.5,4.2,1,4.2,2.3c0,1-0.9,2.2-3.5,2.2c-3.3,0-5.5-1.7-6.5-2.8l-0.1-0.1l-2.6,3.6l0.1,0.1c2.2,2.2,5.2,3.3,8.9,3.3
		c5.2,0,8.4-2.6,8.4-6.8C225,10.4,220.6,9.4,217.1,8.6z"/>
	<path fill="#F26139" d="M224.5,39H0.7v-4.6h223.8V39z"/>
</g>
</svg>
